<svg xmlns="http://www.w3.org/2000/svg" width="63" height="32" fill="none" viewBox="0 0 63 32">
  <path fill="#fff" d="M34.403 16.21c2.017.001 3.54.672 4.8 1.93l-2.612 2.476c-.381-.38-.922-.901-2.189-.827-1.16.068-2.315.991-2.315 2.526 0 1.412 1.017 2.527 2.315 2.527 1.149 0 1.596-.667 1.758-1.053h-1.758l.001-2.736h5.473v1.473c0 3.044-2.087 5.474-5.473 5.474a5.895 5.895 0 1 1 0-11.79Zm10 .21v6.527a1.263 1.263 0 0 0 2.526 0l-.001-6.526h3.789v6.526a5.052 5.052 0 0 1-10.105 0v-6.526h3.79ZM4.517 24.843h4.21v2.947h-8V16.421h3.79v8.42Zm13.051-8.422v2.948h-4.21v1.263h3.368v2.947H13.36v1.264h4.21v2.947h-8V16.42h8Zm11.79 11.37h-3.79l-.405-1.684h-2.979l-.405 1.683H17.99l3.79-11.368h3.788l3.79 11.368Zm30.2-11.37v2.948h-4.21v1.263h3.369v2.947H55.35v1.264h4.21v2.947h-8V16.42h8Zm1.724 9.057c.199 0 .39.049.572.148a1.166 1.166 0 0 1 .433 1.583 1.162 1.162 0 0 1-1.58.428 1.164 1.164 0 0 1-.425-1.584c.105-.186.248-.328.43-.427.182-.1.372-.148.57-.148Zm.003.225a.942.942 0 0 0-.458.12.942.942 0 0 0-.349 1.275.93.93 0 0 0 1.268.344.884.884 0 0 0 .344-.344.928.928 0 0 0-.002-.933.867.867 0 0 0-.345-.343.952.952 0 0 0-.458-.119Zm.117.325a.487.487 0 0 1 .193.05.312.312 0 0 1 .115.117c.03.053.046.112.046.176a.325.325 0 0 1-.087.228.393.393 0 0 1-.244.117.32.32 0 0 1 .087.046c.02.016.048.047.083.094a2.6 2.6 0 0 1 .09.149l.144.248h-.307l-.103-.2c-.07-.133-.127-.218-.173-.252a.276.276 0 0 0-.172-.053h-.064v.505h-.25v-1.228h.25c.233 0 .364.001.392.003Zm-.392.528h.101c.144 0 .233-.006.268-.017a.16.16 0 0 0 .112-.153.152.152 0 0 0-.113-.149 1.185 1.185 0 0 0-.267-.017h-.101v.336Zm-38.116-3.398h1.56l-.78-3.238-.78 3.238ZM16.762 4a5.894 5.894 0 1 1 0 11.789 5.894 5.894 0 0 1 0-11.789Zm12.272.001c.586 0 1.572.086 2.106.245v4.39c-.384-.513-1.416-.846-2.106-.846a2.106 2.106 0 0 0 0 4.21c.69 0 1.722-.333 2.106-.846v4.39c-.534.159-1.52.245-2.106.245a5.894 5.894 0 1 1 0-11.788Zm-22.41.21c2.092 0 3.788 1.486 3.788 3.579 0 1.593-.862 3.043-2.254 3.306l2.886 4.483h-4.21L4.518 11.79v3.79H.728V4.21h5.895Zm29.148 0V8l2.315-3.79h4.21l-3.79 5.685 3.79 5.683h-4.21L35.77 11.79v3.79h-3.79V4.21h3.79Zm14.946-.001v2.948h-4.21v1.263h3.368v2.947h-3.368v1.264h4.21v2.947h-8V4.21h8Zm8.842 0v2.948h-2.105v8.421h-3.79V7.16H51.56V4.21h8ZM16.762 7.79a2.106 2.106 0 1 0 0 4.211 2.106 2.106 0 0 0 0-4.212ZM4.518 9.684h.841a1.264 1.264 0 0 0 0-2.527h-.841v2.527Z"/>
</svg>
