<svg width="34" height="24" viewBox="0 0 34 24" xmlns="http://www.w3.org/2000/svg">
<path d="M8.44113 3.28072H4.55682C2.03956 3.28072 0 5.31557 0 7.82326V16.4558C0 18.9651 2.04126 20.9983 4.55682 20.9983H8.44113C8.51398 20.9983 8.57157 20.9409 8.57157 20.8683V3.41074C8.57157 3.33982 8.51398 3.28072 8.44113 3.28072ZM7.13846 19.5697H4.55682C3.72169 19.5697 2.93737 19.2455 2.34787 18.6578C1.75836 18.0701 1.43311 17.2883 1.43311 16.4558V7.82326C1.43311 6.99074 1.75836 6.20888 2.34787 5.62122C2.93737 5.03356 3.72338 4.70934 4.55682 4.70934H7.13846V19.5697ZM4.43825 6.92995C5.36147 6.92995 6.10852 7.67634 6.10852 8.59498C6.10852 9.51362 5.35977 10.2617 4.43825 10.2617C3.51672 10.2617 2.76798 9.51531 2.76798 8.59498C2.76798 7.67465 3.51672 6.92995 4.43825 6.92995ZM13.2148 3.28072H10.4654C10.4011 3.28072 10.3503 3.33307 10.3503 3.39555V20.8683C10.3503 20.9392 10.4079 20.9983 10.4807 20.9983H13.2165C15.7337 20.9983 17.7733 18.9651 17.7733 16.4558V7.82326C17.7733 5.31388 15.7321 3.28072 13.2165 3.28072H13.2148ZM13.867 14.8178C12.8743 14.8178 12.0697 14.0156 12.0697 13.0261C12.0697 12.0365 12.8743 11.2344 13.867 11.2344C14.8597 11.2344 15.6643 12.0365 15.6643 13.0261C15.6643 14.0156 14.8597 14.8178 13.867 14.8178ZM20.7666 20.9983V17.9519C21.0817 17.6936 22.2759 16.6702 23.5379 15.5878C24.6729 14.6151 25.8079 13.6374 26.9649 12.69C27.8373 11.9757 29.4923 10.6636 29.5448 9.37853C29.6075 7.86716 28.5318 6.88773 26.9259 6.88773C25.9688 6.88773 24.8457 7.41797 24.1647 7.9955C23.4736 8.58147 22.6113 9.31774 22.6113 9.31774L20.0958 6.59897C22.2319 4.21287 24.5289 3.00209 26.9225 3.00209C32.0248 2.87543 35.8685 8.54432 31.9875 12.9872C30.5798 14.5341 28.9807 15.9829 27.3376 17.2714H34V21H20.7666V20.9983Z" />
</svg>
