<svg xmlns="http://www.w3.org/2000/svg" width="20" height="20" viewBox="0 0 20 20" fill="none">
  <path d="M5.43709 4.4382C6.66134 4.4477 6.72284 6.1782 5.46084 6.2042C5.15517 6.21037 4.84942 6.21254 4.54359 6.2107C4.537 6.21064 4.53071 6.20798 4.52607 6.20329C4.52144 6.19861 4.51884 6.19229 4.51884 6.1857V4.4627C4.51884 4.45612 4.52144 4.4498 4.52607 4.44511C4.53071 4.44043 4.537 4.43777 4.54359 4.4377C4.84209 4.4357 5.13992 4.43587 5.43709 4.4382Z" fill="white" fill-opacity="1"/>
  <path d="M7.43158 16.7426L7.73333 15.8183C7.73385 15.8168 7.73483 15.8155 7.73612 15.8146C7.73674 15.8142 7.73742 15.8139 7.73814 15.8136C7.73891 15.8134 7.73972 15.8133 7.74055 15.8133C7.74213 15.8133 7.74366 15.8138 7.74492 15.8148C7.74618 15.8157 7.74711 15.817 7.74758 15.8186L8.03008 16.7488C8.03044 16.7499 8.03052 16.7511 8.03032 16.7523C8.03012 16.7535 8.02965 16.7546 8.02894 16.7555C8.02824 16.7565 8.02731 16.7573 8.02625 16.7578C8.02568 16.7581 8.02507 16.7583 8.02445 16.7584C8.02392 16.7585 8.02338 16.7586 8.02283 16.7586L7.43858 16.7523C7.43742 16.7523 7.43627 16.752 7.43524 16.7514C7.43471 16.7512 7.43422 16.7508 7.43377 16.7504C7.43335 16.7501 7.43297 16.7496 7.43264 16.7492C7.43196 16.7482 7.43151 16.7471 7.43133 16.746C7.43114 16.7448 7.43123 16.7437 7.43158 16.7426Z" fill="white" fill-opacity="1"/>
  <path fill-rule="evenodd" clip-rule="evenodd" d="M20 -0.000732422H0V19.9993H20V-0.000732422ZM15.7565 10.7635C13.363 11.2145 10.9012 10.028 10.3295 7.53177C9.726 4.89752 11.4732 2.42827 14.1205 2.05827C15.3757 1.88277 16.7297 2.14502 17.7393 2.94052C17.9187 3.08202 18.0849 3.25227 18.2377 3.45127C18.2416 3.45638 18.2434 3.46273 18.2428 3.46904C18.2422 3.47536 18.2392 3.48116 18.2345 3.48527L16.2385 5.24402C16.2335 5.2484 16.2269 5.25063 16.2203 5.25021C16.2136 5.24978 16.2074 5.24675 16.203 5.24177C15.9473 4.9511 15.6337 4.76627 15.2622 4.68727C14.2247 4.46652 13.257 4.98002 13.0557 6.06802C12.8115 7.38802 13.7852 8.44802 15.1312 8.23702C15.6226 8.16002 16.0239 7.91843 16.3352 7.51227C16.3373 7.50957 16.3399 7.50732 16.3429 7.50566C16.3458 7.504 16.3491 7.50297 16.3525 7.50262C16.3559 7.50226 16.3593 7.50261 16.3626 7.50362C16.3659 7.50464 16.3689 7.5063 16.3715 7.50852L18.31 9.18377C18.3147 9.18785 18.3178 9.19357 18.3185 9.19978C18.3192 9.206 18.3175 9.21224 18.3137 9.21727C17.7065 10.0463 16.7558 10.575 15.7565 10.7635ZM5.625 2.13077C7.3655 2.13177 8.87525 2.91902 9.1165 4.80377C9.38725 6.92102 7.7915 8.40277 5.7575 8.44152C5.35333 8.44918 4.94883 8.45135 4.544 8.44802C4.5407 8.44799 4.53742 8.44861 4.53436 8.44985C4.53129 8.45109 4.52851 8.45293 4.52616 8.45525C4.52381 8.45757 4.52195 8.46034 4.52068 8.46339C4.5194 8.46644 4.51875 8.46971 4.51875 8.47302V10.7043C4.51875 10.7109 4.51612 10.7173 4.51143 10.7219C4.50674 10.7266 4.50038 10.7293 4.49375 10.7293L1.74375 10.7333C1.73712 10.7333 1.73076 10.7306 1.72607 10.7259C1.72138 10.7213 1.71875 10.7149 1.71875 10.7083V2.15577C1.71875 2.14914 1.72138 2.14278 1.72607 2.13809C1.73076 2.1334 1.73712 2.13077 1.74375 2.13077C3.03758 2.1301 4.33133 2.1301 5.625 2.13077ZM18.2794 12.2204C18.2809 12.2219 18.2817 12.2239 18.2817 12.226V12.816C18.2817 12.8171 18.2815 12.8181 18.2811 12.8191C18.2807 12.8201 18.2801 12.8209 18.2794 12.8217C18.279 12.8221 18.2785 12.8225 18.2779 12.8228C18.2776 12.8231 18.2772 12.8232 18.2768 12.8234C18.2758 12.8238 18.2748 12.824 18.2737 12.824H1.70175C1.7007 12.824 1.69966 12.8238 1.69869 12.8234C1.69772 12.823 1.69684 12.8224 1.69609 12.8217C1.69535 12.8209 1.69476 12.8201 1.69436 12.8191C1.69396 12.8181 1.69375 12.8171 1.69375 12.816V12.226C1.69375 12.2239 1.69459 12.2219 1.69609 12.2204C1.69759 12.2189 1.69963 12.218 1.70175 12.218H18.2737C18.2759 12.218 18.2779 12.2189 18.2794 12.2204ZM4.008 17.1145C4.1635 17.0632 4.27783 16.9639 4.351 16.8168C4.35292 16.813 4.35383 16.8087 4.35365 16.8045C4.35347 16.8002 4.35221 16.7961 4.34998 16.7924C4.34775 16.7888 4.34463 16.7858 4.34091 16.7837C4.3372 16.7816 4.33301 16.7805 4.32875 16.7805H3.66075C3.65745 16.7805 3.65417 16.7799 3.65112 16.7786C3.64808 16.7773 3.64531 16.7755 3.64298 16.7731C3.64066 16.7708 3.63882 16.768 3.63758 16.7649C3.63634 16.7618 3.63572 16.7586 3.63575 16.7553L3.64275 16.0058C3.64282 15.9992 3.64548 15.9929 3.65016 15.9883C3.65484 15.9836 3.66116 15.981 3.66775 15.981L5.54475 15.9823C5.55051 15.9823 5.5561 15.9843 5.56056 15.9879C5.56503 15.9915 5.5681 15.9966 5.56925 16.0023C5.64575 16.377 5.59325 16.7558 5.456 17.1083C5.21975 17.715 4.7505 18.0998 4.12 18.221C2.87 18.461 1.6615 17.6165 1.67775 16.287C1.696 14.7958 3.17625 13.9753 4.531 14.4383C4.8215 14.5378 5.0625 14.6923 5.263 14.916C5.2672 14.9208 5.26943 14.9269 5.26925 14.9333C5.26906 14.9396 5.26647 14.9457 5.262 14.9503L4.4505 15.7713C4.44818 15.7736 4.44541 15.7755 4.44236 15.7767C4.43932 15.778 4.43605 15.7787 4.43275 15.7787C4.42945 15.7787 4.42618 15.778 4.42314 15.7767C4.42009 15.7755 4.41732 15.7736 4.415 15.7713C4.1795 15.5354 3.90425 15.4389 3.58925 15.4818C2.95525 15.568 2.7355 16.358 3.073 16.8403C3.28275 17.1398 3.66475 17.2278 4.008 17.1145ZM7.16683 17.682C7.16548 17.683 7.16449 17.6844 7.164 17.686L7.009 18.1938C7.00851 18.1954 7.00752 18.1968 7.00617 18.1978C7.00481 18.1988 7.00318 18.1993 7.0015 18.1993H5.72325C5.72199 18.1993 5.72076 18.199 5.71965 18.1984C5.71909 18.1981 5.71857 18.1977 5.7181 18.1973C5.71764 18.1969 5.71722 18.1964 5.71687 18.1959C5.71616 18.1949 5.7157 18.1937 5.71555 18.1925C5.7154 18.1912 5.71555 18.1899 5.716 18.1888L7.152 14.3793C7.15256 14.3778 7.15355 14.3765 7.15485 14.3756C7.15614 14.3747 7.15768 14.3743 7.15925 14.3743H8.385C8.38657 14.3743 8.38811 14.3747 8.3894 14.3756C8.3907 14.3765 8.39169 14.3778 8.39225 14.3793L9.86975 18.1888C9.8702 18.1899 9.87035 18.1912 9.8702 18.1925C9.87005 18.1937 9.86959 18.1949 9.86888 18.1959C9.86817 18.197 9.86722 18.1978 9.8661 18.1984C9.86499 18.199 9.86376 18.1993 9.8625 18.1993H8.499C8.49732 18.1993 8.49568 18.1988 8.49433 18.1978C8.49298 18.1968 8.49199 18.1954 8.4915 18.1938L8.333 17.686C8.33251 17.6844 8.33152 17.683 8.33017 17.682C8.32881 17.681 8.32718 17.6805 8.3255 17.6805H7.1715C7.16982 17.6805 7.16819 17.681 7.16683 17.682ZM13.2852 16.5948C13.2861 16.5724 13.2861 16.55 13.2852 16.5275C13.2831 16.4734 13.2703 16.4708 13.247 16.5198L12.7062 17.6605C12.7042 17.6648 12.701 17.6684 12.6971 17.6709C12.6931 17.6734 12.6885 17.6748 12.6838 17.6748L12.0857 17.674C12.0811 17.674 12.0765 17.6727 12.0725 17.6702C12.0686 17.6678 12.0653 17.6642 12.0632 17.66L11.5005 16.5093C11.4752 16.4574 11.4625 16.4604 11.4625 16.518V18.1743C11.4625 18.1809 11.4599 18.1873 11.4552 18.1919C11.4505 18.1966 11.4441 18.1993 11.4375 18.1993H10.3C10.2934 18.1993 10.287 18.1966 10.2823 18.1919C10.2776 18.1873 10.275 18.1809 10.275 18.1743V14.3993C10.275 14.3926 10.2776 14.3863 10.2823 14.3816C10.287 14.3769 10.2934 14.3743 10.3 14.3743H11.5332C11.538 14.3743 11.5426 14.3756 11.5466 14.3781C11.5507 14.3806 11.5539 14.3842 11.556 14.3885L12.3877 16.1123C12.3997 16.1373 12.4117 16.1373 12.4237 16.1123L13.2562 14.3885C13.2583 14.3843 13.2615 14.3807 13.2654 14.3781C13.2694 14.3756 13.274 14.3743 13.2788 14.3743H14.475C14.4816 14.3743 14.488 14.3769 14.4927 14.3816C14.4974 14.3863 14.5 14.3926 14.5 14.3993V18.1743C14.5 18.1809 14.4974 18.1873 14.4927 18.1919C14.488 18.1966 14.4816 18.1993 14.475 18.1993H13.313C13.3064 18.1993 13.3 18.1966 13.2953 18.1919C13.2906 18.1873 13.288 18.1809 13.288 18.1743C13.2882 17.6848 13.2858 17.204 13.281 16.732C13.281 16.724 13.2824 16.6783 13.2852 16.5948ZM16.531 17.1277C16.5325 17.1292 16.5344 17.13 16.5365 17.13L18.3172 17.1318C18.3193 17.1318 18.3213 17.1326 18.3227 17.134C18.3242 17.1355 18.325 17.1375 18.325 17.1395V18.1915C18.325 18.1936 18.3242 18.1955 18.3227 18.197C18.3213 18.1985 18.3193 18.1993 18.3172 18.1993H15.2828C15.2807 18.1993 15.2787 18.1985 15.2773 18.197C15.2758 18.1955 15.275 18.1936 15.275 18.1915V14.382C15.275 14.38 15.2758 14.378 15.2773 14.3765C15.2787 14.3751 15.2807 14.3743 15.2828 14.3743H18.2547C18.2568 14.3743 18.2588 14.3751 18.2602 14.3765C18.2617 14.378 18.2625 14.38 18.2625 14.382V15.429C18.2625 15.4311 18.2617 15.433 18.2602 15.4345C18.2588 15.436 18.2568 15.4368 18.2547 15.4368H16.537C16.5349 15.4368 16.533 15.4376 16.5315 15.439C16.5301 15.4405 16.5292 15.4425 16.5292 15.4445L16.5262 15.8478C16.5262 15.8498 16.5271 15.8518 16.5285 15.8532C16.53 15.8547 16.5319 15.8555 16.534 15.8555H17.986C17.9874 15.8555 17.9888 15.8559 17.99 15.8566C17.9905 15.8569 17.991 15.8573 17.9915 15.8578C17.9929 15.8592 17.9937 15.8612 17.9937 15.8633V16.7028C17.9937 16.7048 17.9929 16.7068 17.9915 16.7082C17.99 16.7097 17.9881 16.7105 17.986 16.7105L16.5333 16.7198C16.5321 16.7198 16.5309 16.72 16.5299 16.7205C16.5291 16.7209 16.5284 16.7214 16.5278 16.722C16.5263 16.7235 16.5255 16.7255 16.5255 16.7275L16.5287 17.1223C16.5287 17.1237 16.5291 17.125 16.5298 17.1262C16.5301 17.1268 16.5306 17.1273 16.531 17.1277Z" fill="white" fill-opacity="1"/>
</svg>