<svg xmlns="http://www.w3.org/2000/svg" width="56" height="24" viewBox="0 0 56 24" fill="none">
  <path d="M28.7559 14.6903V9.78685C28.7559 8.7885 29.2138 8.07363 30.1924 8.07363H36.2248C36.2591 8.07363 36.2954 8.03665 36.2954 7.99968V7.02392C36.2954 7.0157 36.2954 7.00748 36.2894 6.99927H28.9052C27.3073 7.20469 26.5245 8.34068 26.5245 9.78685V14.6882C26.5245 15.6784 26.0544 16.3953 25.092 16.3953H18.7287C18.6924 16.3953 18.656 16.4199 18.656 16.4693V17.445C18.656 17.4861 18.6762 17.5169 18.7024 17.5272H25.9333C27.8157 17.4758 28.7438 16.2536 28.7438 14.6821L28.7559 14.6903ZM3.98446 17.5333H6.10288C6.1184 17.5264 6.1315 17.5148 6.1405 17.5001C6.14949 17.4855 6.15395 17.4684 6.15332 17.4512V14.3287C6.15332 13.3283 6.70814 12.6381 7.51718 12.6381H16.239C18.2041 12.6381 19.1544 11.4056 19.1544 9.79507C19.1544 8.34684 18.3756 7.21291 16.7737 7.00748H3.94814C3.94814 7.01365 3.93604 7.01776 3.93604 7.02803V8.00378C3.93604 8.05309 3.96226 8.07774 4.01068 8.07774H15.5046C16.4811 8.07774 16.9411 8.79672 16.9411 9.78891C16.9411 10.7832 16.4831 11.5062 15.5046 11.5062H6.40954C4.99726 11.5062 3.93604 12.7223 3.93604 14.3267V17.4471C3.93604 17.4881 3.95621 17.521 3.99253 17.5292L3.98446 17.5333ZM36.2611 16.4035H47.8378C47.8721 16.4035 47.8983 16.4282 47.8983 16.4528V17.445C47.8983 17.4943 47.9326 17.519 47.9689 17.519H50.0571C50.0934 17.519 50.1297 17.4984 50.1297 17.445V16.4693C50.1297 16.4323 50.1701 16.3953 50.2104 16.3953H52.2845C52.3329 16.3953 52.3571 16.3583 52.3571 16.3213V15.3271C52.3571 15.2901 52.3369 15.2532 52.2865 15.2532H50.2084C50.1681 15.2532 50.1338 15.2182 50.1338 15.1813V8.07568C50.1338 7.49434 49.9239 7.12458 49.5688 7.00132H48.9636C48.7481 7.06135 48.5422 7.15267 48.3523 7.27248L35.8838 15.1094C35.3996 15.4175 35.2322 15.7626 35.3532 16.0235C35.4501 16.2371 35.7265 16.3974 36.2692 16.3974L36.2611 16.4035ZM38.0668 15.095L47.7309 9.01241C47.7914 8.96311 47.9124 8.97543 47.9124 9.11101V15.1936C47.9124 15.2306 47.8802 15.2675 47.8438 15.2675H38.1253C38.0446 15.2675 38.0043 15.2429 37.9942 15.2182C37.9821 15.1689 38.0043 15.1319 38.0668 15.095Z" fill="white" fill-opacity="1"/>
</svg>