<svg xmlns="http://www.w3.org/2000/svg" width="56" height="24" viewBox="0 0 56 24" fill="none">
  <path d="M25.0192 17.5665C25.7591 17.5665 26.4688 17.2672 26.992 16.7345C27.5152 16.2017 27.8092 15.4792 27.8092 14.7258V9.84C27.8092 9.61507 27.8527 9.39234 27.9373 9.18456C28.0219 8.97678 28.1459 8.78802 28.3022 8.62906C28.4585 8.47011 28.6441 8.34409 28.8482 8.2582C29.0524 8.17231 29.2712 8.12824 29.4921 8.12852H34.9073C34.9269 8.12798 34.9455 8.11966 34.9592 8.10534C34.9729 8.09102 34.9805 8.07183 34.9805 8.05185V7.07384C34.9805 7.05406 34.9728 7.0351 34.9591 7.02111C34.9453 7.00713 34.9267 6.99927 34.9073 6.99927H28.383C28.0165 6.999 27.6535 7.07227 27.3147 7.21491C26.976 7.35754 26.6682 7.56675 26.4089 7.83056C26.1496 8.09437 25.9439 8.40762 25.8036 8.7524C25.6632 9.09719 25.591 9.46675 25.591 9.83998V14.7299C25.591 15.184 25.4139 15.6195 25.0988 15.9408C24.7836 16.2621 24.3561 16.4429 23.9101 16.4435H18.5702C18.5606 16.4435 18.5511 16.4454 18.5422 16.4491C18.5333 16.4529 18.5252 16.4584 18.5184 16.4653C18.5116 16.4722 18.5062 16.4805 18.5026 16.4895C18.4989 16.4986 18.497 16.5083 18.497 16.5181V17.496C18.497 17.5158 18.5047 17.5348 18.5184 17.5488C18.5322 17.5628 18.5508 17.5706 18.5702 17.5706L25.0192 17.5665ZM37.215 10.9692V7.07384C37.215 7.05406 37.2227 7.0351 37.2364 7.02111C37.2502 7.00713 37.2688 6.99927 37.2882 6.99927H52.0319C52.0515 6.99926 52.0703 7.00705 52.0844 7.02098C52.0985 7.0349 52.1066 7.05387 52.1072 7.07384V8.05183C52.1066 8.072 52.0985 8.0912 52.0845 8.10546C52.0705 8.11973 52.0517 8.12797 52.0319 8.1285H39.5044C39.4849 8.1285 39.4663 8.13636 39.4526 8.15035C39.4388 8.16434 39.4311 8.18331 39.4311 8.20309V10.7413C39.4306 10.8485 39.4509 10.9547 39.4909 11.0539C39.5308 11.153 39.5897 11.2431 39.664 11.319C39.7384 11.3949 39.8267 11.4551 39.924 11.496C40.0213 11.537 40.1256 11.5579 40.2309 11.5577H49.5573C50.3131 11.5981 51.0248 11.9323 51.5457 12.4913C52.0666 13.0503 52.357 13.7915 52.357 14.5621C52.357 15.3326 52.0666 16.0738 51.5457 16.6328C51.0248 17.1918 50.3131 17.526 49.5573 17.5665H37.2882C37.2688 17.5665 37.2502 17.5586 37.2364 17.5446C37.2227 17.5306 37.215 17.5117 37.215 17.4919V16.5181C37.215 16.5083 37.2169 16.4986 37.2206 16.4895C37.2242 16.4805 37.2296 16.4722 37.2364 16.4653C37.2432 16.4584 37.2513 16.4529 37.2602 16.4491C37.2691 16.4454 37.2786 16.4435 37.2882 16.4435H48.4462C48.6939 16.4508 48.9405 16.4074 49.1714 16.3158C49.4023 16.2241 49.6127 16.0862 49.7902 15.91C49.9676 15.7339 50.1084 15.5232 50.2043 15.2905C50.3001 15.0579 50.349 14.8079 50.3481 14.5556C50.3471 14.3033 50.2963 14.0538 50.1987 13.8218C50.1011 13.5899 49.9587 13.3804 49.7799 13.2056C49.6012 13.0309 49.3897 12.8946 49.1581 12.8047C48.9265 12.7149 48.6796 12.6734 48.4319 12.6828H38.8959C38.675 12.6828 38.4562 12.6384 38.2522 12.5523C38.0481 12.4662 37.8627 12.3399 37.7066 12.1808C37.5505 12.0216 37.4267 11.8327 37.3424 11.6248C37.258 11.4169 37.2147 11.1942 37.215 10.9692ZM15.3325 11.5577C15.7792 11.5577 16.2075 11.377 16.5233 11.0555C16.8391 10.7339 17.0165 10.2978 17.0165 9.84308C17.0165 9.38834 16.8391 8.95223 16.5233 8.63069C16.2075 8.30914 15.7792 8.1285 15.3325 8.1285H4.00977C3.99015 8.12796 3.97151 8.11965 3.95782 8.10533C3.94414 8.09101 3.93648 8.07182 3.93649 8.05183V7.07384C3.93649 7.06404 3.93839 7.05434 3.94207 7.04529C3.94576 7.03625 3.95115 7.02802 3.95796 7.0211C3.96476 7.01418 3.97284 7.00868 3.98173 7.00494C3.99062 7.00119 4.00014 6.99927 4.00977 6.99927H16.4233C17.1503 7.01947 17.8409 7.32773 18.3482 7.85845C18.8554 8.38918 19.1392 9.10048 19.1392 9.84101C19.1392 10.5815 18.8554 11.2928 18.3482 11.8236C17.8409 12.3543 17.1503 12.6626 16.4233 12.6828H7.83555C7.61464 12.6828 7.39589 12.7271 7.19182 12.8132C6.98775 12.8994 6.80236 13.0256 6.64624 13.1848C6.49013 13.3439 6.36636 13.5328 6.282 13.7407C6.19765 13.9486 6.15437 14.1714 6.15464 14.3963V17.5043C6.15463 17.5241 6.14691 17.5431 6.13317 17.5571C6.11943 17.571 6.1008 17.5789 6.08138 17.5789H4.00977C3.99942 17.579 3.98918 17.5768 3.97971 17.5726C3.97025 17.5683 3.96177 17.5621 3.95485 17.5542C3.94793 17.5464 3.94271 17.5372 3.93955 17.5271C3.93638 17.5171 3.93534 17.5065 3.93649 17.496V14.388C3.93918 13.6361 4.23459 12.9159 4.75797 12.3853C5.28134 11.8547 5.98998 11.5571 6.72853 11.5577H15.3325Z" fill="white" fill-opacity="1"/>
</svg>