<svg xmlns="http://www.w3.org/2000/svg" width="49" height="24" viewBox="0 0 49 24" fill="none">
  <g clip-path="url(#clip0_1797_39833)">
    <path d="M35.2311 12.5483L37.0696 9.97573C36.4664 9.83205 35.8931 9.58035 35.3764 9.23239C35.1248 9.03763 34.9238 8.7831 34.7911 8.49104C34.6584 8.19897 34.5979 7.87825 34.6149 7.55689C34.6021 7.23303 34.671 6.91122 34.8153 6.62229C34.9595 6.33335 35.1742 6.08696 35.4388 5.90671C36.1538 5.47332 36.9806 5.26983 37.811 5.32289C41.0423 5.32289 41.8841 7.0526 42.4553 7.78482L44.1886 5.35932C43.8956 4.87344 43.525 4.4408 43.092 4.07926C41.8853 3.06385 40.1082 2.55615 37.7608 2.55615C35.6953 2.55615 34.0807 3.01734 32.917 3.93974C32.3537 4.37108 31.9008 4.93426 31.5966 5.58161C31.2923 6.22895 31.1458 6.9414 31.1693 7.65864C31.1693 10.1264 32.523 11.6841 35.2311 12.5483ZM44.1411 12.4181C43.3311 11.6838 42.0766 11.1087 40.3773 10.6929L38.5183 13.2939C39.4908 13.4922 40.4165 13.8801 41.2444 14.4362C41.5006 14.6162 41.7073 14.86 41.8448 15.1443C41.9823 15.4286 42.046 15.7441 42.0299 16.0606C42.0489 16.4373 41.9742 16.8128 41.8128 17.1524C41.6513 17.4919 41.4082 17.7843 41.1061 18.0027C40.3047 18.5018 39.3716 18.7367 38.4341 18.6754C35.7469 18.6754 34.4801 17.7685 33.1862 15.4079L31.3316 18.0027C31.6625 18.6962 32.1393 19.3071 32.7281 19.7919C34.0514 20.8921 35.92 21.4421 38.3338 21.4421C40.5977 21.4421 42.3622 20.9556 43.6274 19.9825C44.2482 19.5086 44.7456 18.8873 45.0764 18.1727C45.4072 17.4581 45.5613 16.672 45.5252 15.8829C45.5585 15.2373 45.4516 14.5923 45.2123 13.9935C44.973 13.3948 44.6071 12.857 44.1406 12.4186L44.1411 12.4181ZM28.1636 21.0378H27.389V2.9627H28.1618L28.1636 21.0378ZM5.41217 2.87783C5.53785 2.87182 5.66309 2.89698 5.77712 2.95116C5.89114 3.00534 5.99053 3.08691 6.06673 3.18885C6.224 3.46183 6.30434 3.77364 6.29896 4.09006C6.29357 4.40649 6.20265 4.71528 6.03619 4.98254C5.94385 5.09257 5.82801 5.17965 5.69754 5.2371C5.56707 5.29455 5.42542 5.32085 5.28343 5.314H5.27907V4.76038H5.283C5.36491 4.76692 5.44718 4.75358 5.52304 4.72145C5.5989 4.68932 5.66619 4.63931 5.71938 4.57555C5.81725 4.41637 5.86308 4.22972 5.85029 4.04238C5.8598 3.88944 5.82278 3.73723 5.74425 3.6065C5.70973 3.55748 5.66367 3.51808 5.6103 3.49192C5.55692 3.46576 5.49795 3.45367 5.43879 3.45677C5.38928 3.45426 5.33996 3.4646 5.29545 3.48683C5.25095 3.50906 5.21272 3.54244 5.18438 3.58385C5.10467 3.72866 5.05159 3.88705 5.02772 4.05126L4.97928 4.29697C4.94503 4.55697 4.83911 4.80176 4.67382 5.00298C4.60086 5.0807 4.51263 5.14189 4.41488 5.18254C4.31713 5.22319 4.21206 5.2424 4.10652 5.23891C3.99211 5.24261 3.87849 5.21836 3.77517 5.16819C3.67184 5.11803 3.58181 5.0434 3.51262 4.95055C3.35384 4.71718 3.27627 4.43645 3.29225 4.15301C3.27098 3.84074 3.35673 3.53061 3.53487 3.27549C3.61878 3.17557 3.72318 3.09558 3.84071 3.04115C3.95825 2.98672 4.08607 2.95919 4.21519 2.96048H4.21955V3.50565H4.21737C4.14938 3.50535 4.08212 3.51986 4.0201 3.54822C3.95808 3.57657 3.90274 3.61811 3.85779 3.67004C3.76931 3.8111 3.72854 3.97773 3.74171 4.14457C3.73351 4.28005 3.7656 4.41492 3.83379 4.53156C3.86221 4.57438 3.90089 4.60909 3.94618 4.63242C3.99146 4.65574 4.04185 4.66691 4.09256 4.66486C4.14272 4.66742 4.19275 4.65756 4.23835 4.63613C4.28395 4.61469 4.32377 4.58232 4.35439 4.54179C4.43546 4.40597 4.4886 4.25482 4.51061 4.09747L4.55905 3.84332C4.59567 3.57404 4.69933 3.31877 4.86015 3.10177C4.93061 3.02572 5.01649 2.96622 5.11182 2.9274C5.20715 2.88857 5.30964 2.87136 5.41217 2.87695V2.87783ZM4.85884 18.8287C4.69802 19.0457 4.59437 19.3009 4.55774 19.5702L4.5093 19.8244C4.48729 19.9817 4.43414 20.1329 4.35308 20.2687C4.32246 20.3092 4.28264 20.3416 4.23704 20.363C4.19144 20.3845 4.14142 20.3943 4.09126 20.3918C4.04054 20.3938 3.99016 20.3826 3.94487 20.3593C3.89959 20.336 3.8609 20.3013 3.83248 20.2585C3.76429 20.1418 3.7322 20.007 3.74041 19.8715C3.72724 19.7046 3.768 19.538 3.85648 19.3969C3.90141 19.345 3.95675 19.3034 4.01878 19.2751C4.0808 19.2467 4.14807 19.2322 4.21606 19.2325H4.21999V18.6843H4.21562C4.08651 18.683 3.9587 18.7106 3.84117 18.765C3.72363 18.8194 3.61924 18.8994 3.53531 18.9993C3.35717 19.2544 3.27142 19.5645 3.29268 19.8768C3.27671 20.1602 3.35427 20.441 3.51305 20.6743C3.58225 20.7672 3.67228 20.8418 3.77561 20.892C3.87893 20.9422 3.99255 20.9664 4.10696 20.9627C4.2125 20.9662 4.31757 20.947 4.41532 20.9063C4.51307 20.8657 4.6013 20.8045 4.67425 20.7268C4.83955 20.5255 4.94547 20.2808 4.97972 20.0208L5.02815 19.775C5.05202 19.6108 5.10511 19.4524 5.18481 19.3076C5.21316 19.2662 5.25138 19.2328 5.29589 19.2106C5.34039 19.1884 5.38971 19.178 5.43922 19.1806C5.49838 19.1775 5.55736 19.1895 5.61074 19.2157C5.66411 19.2419 5.71017 19.2813 5.74469 19.3303C5.82321 19.461 5.86024 19.6132 5.85073 19.7662C5.86352 19.9535 5.81769 20.1402 5.71981 20.2993C5.66662 20.3631 5.59933 20.4131 5.52347 20.4452C5.44761 20.4774 5.36535 20.4907 5.28343 20.4842H5.27951V21.0347H5.28387C5.42586 21.0415 5.5675 21.0152 5.69797 20.9578C5.82844 20.9003 5.94428 20.8132 6.03662 20.7032C6.20309 20.436 6.29401 20.1272 6.2994 19.8107C6.30478 19.4943 6.22444 19.1825 6.06717 18.9095C5.99097 18.8076 5.89158 18.726 5.77756 18.6718C5.66353 18.6177 5.53829 18.5925 5.4126 18.5985C5.30949 18.5932 5.20647 18.6109 5.1108 18.6504C5.01513 18.6899 4.92914 18.7503 4.85884 18.8273V18.8287ZM6.23474 11.6992V12.279C6.12827 12.3347 6.00961 12.3618 5.89 12.3577L5.57581 12.3701C5.44488 12.3632 5.31605 12.4058 5.21405 12.4897C5.13819 12.5866 5.1018 12.7096 5.11238 12.8331V13.5498H6.23692V14.1114H3.35683V12.7838C3.35669 12.7203 3.35975 12.6568 3.366 12.5936C3.366 12.6127 3.366 12.6327 3.366 12.654C3.37207 12.4558 3.42876 12.2625 3.53051 12.0933L3.50694 12.1231C3.52728 12.0881 3.55018 12.0546 3.57545 12.0231C3.64732 11.934 3.73852 11.863 3.84188 11.8158C3.94524 11.7687 4.05793 11.7465 4.17111 11.7512C4.32154 11.7408 4.471 11.7824 4.59533 11.8693C4.71966 11.9561 4.81158 12.0831 4.85622 12.2297C4.89017 12.105 4.96559 11.9962 5.06961 11.9218C5.19107 11.851 5.32895 11.8146 5.4689 11.8165L5.89611 11.7921C6.01294 11.7948 6.12817 11.764 6.22863 11.7032L6.23474 11.6992ZM4.23133 12.3301C4.17292 12.3267 4.11451 12.337 4.06059 12.3601C4.00666 12.3832 3.95864 12.4185 3.9202 12.4634C3.84228 12.5723 3.80415 12.7054 3.81241 12.8398V13.5507H4.67469V12.8149C4.68252 12.6846 4.64186 12.5561 4.56079 12.455C4.51792 12.4111 4.46627 12.3771 4.40934 12.3553C4.35242 12.3336 4.29155 12.3245 4.23089 12.3288L4.23133 12.3301ZM3.35858 10.5231H6.23866V9.96151H3.35858V10.5231ZM3.85474 6.44122H3.35858V8.60103H6.23866V6.44122H5.7425V8.04075H5.00721V6.59451H4.53112V8.04075H3.85256L3.85474 6.44122ZM3.85474 15.3146H3.35858V17.4744H6.23866V15.3146H5.7425V16.9141H5.00721V15.4679H4.53112V16.9141H3.85256L3.85474 15.3146ZM7.4867 21.0373H11.3067L14.2087 16.9768L12.2986 14.3038L7.4867 21.0373ZM24.2235 2.96359H20.4035L18.0291 6.28571L19.9392 8.95826L24.2235 2.96359ZM11.8343 2.96359H8.01385L20.9306 21.0347H24.7506L11.8343 2.96359Z" fill="white" fill-opacity="1"/>
  </g>
  <defs>
    <clipPath id="clip0_1797_39833">
      <rect width="48.0015" height="24" fill="white" transform="translate(0.443115 -0.000732422)"/>
    </clipPath>
  </defs>
</svg>