<svg xmlns="http://www.w3.org/2000/svg" width="32" height="32" fill="none" viewBox="0 0 32 32">
  <path fill="#fff" d="M6.546 19.12c6.331.225 13.053 3.67 14.302 6.73.274.67.349 1.63-.617 2.295-1.713 1.18-3.114 1.8-3.987 2.22-1.929-.93-6.526-2.684-10.836-10.125-.489-.845.387-1.147 1.138-1.12ZM1.55 8.855c.59.407 1.278.807 1.975.94.107.024.21.045.319.06.201.024.398.053.605.057.96.018 1.858-.22 2.594-.646 0 .014-.036.794-.037.883-.002.09.126.126.129.127a1.91 1.91 0 0 0-.09 1.14c.143.574.766 1.223 1.561 1.436.795.213 1.462-.355 1.462-.355.149.092.31.165.477.215l.394.092c-.006.017-.347.905.008 1.703.36.806 1.506 1.387 2.054 1.402.548.015 1.252-.392 1.587-.698.334-.306.632-.908.694-1.125.532.42 1.18.584 1.64.345l1.03.57s.455.278.977.451l.74.246c0 .018-.007.651.3 1.02.312.373 1.1.7 1.31.726.212.027.832-.016 1.341-.696.008-.011.015-.023.024-.034.83 1.047 2.104 1.497 3.313 1.48 1.125-.015 1.825.835 1.122 2.045-1.853 3.202-3.756 5.352-5.482 6.835.467-3.27-6.231-8.622-13.178-9.73-3.153-.502-5.23-1.252-5.892-3.608-.484-1.724-.845-3.595-.977-4.88Zm20.932 4.93c1.78-.812 5.041 1.448 5.213 3.654-.87-.906-3.15-.025-4.794-1.134.303-.559.421-1.135.347-1.544-.095-.52-.27-.651-.6-.88a1.504 1.504 0 0 0-.166-.096Zm-.697 2.28.24.71s-.33.15-.584-.033l-.038-.054.323-.631.06.007Zm-5.542-14.21c8.6 0 12.911 2.222 14.682 3.429.134 1.791.364 5.857-2.1 11.514a9.826 9.826 0 0 0-.058-.23c-.35-1.327-1.98-2.916-4.392-3.396-.692-.138-1.613.022-2.143.504a3.337 3.337 0 0 0-.441-.13 1.88 1.88 0 0 1 .345-.291c.302-.19.734-.454.933-.516.009-.003.174-.063.27-.093.007-.127-.04-.215-.496-.433-.379-.182-1.192-.194-1.192-.194-1.172-.005-1.9.537-1.9.537 0 .002-.03.134-.023.169.006.033.174.11.183.115.278.11 1.262.51 1.491.648 0 0-.428.08-.728.3l-1.29-.383c-.144-.043-.124-.129-.123-.133l.425-.374a.389.389 0 0 1-.133-.104c-.013-.045.02-.231.05-.309.104-.092.536-.303.791-.394.247-.089.822-.176.847-.198a1.36 1.36 0 0 0 .111-.186c.038-.07.002-.116-.001-.12l-.112-.108c-.002-.001-.027-.024.017-.028.008 0 .34.009.578.037a3.425 3.425 0 0 0-.127-.142c-.012-.042-.009-.121.105-.223l.668-.664a.272.272 0 0 0 .046-.08l.055-.17.821.333a.884.884 0 0 1 .057-.259l-1.145-.462a8.908 8.908 0 0 1-.087-.079c-.032-.03-.065-.057-.067-.059a.907.907 0 0 0-.145-.082l-1.193-.407a.22.22 0 0 0-.098-.01.505.505 0 0 1-.167.008c-.078-.03-.391-.146-.583-.213-.017.073-.04.144-.07.212l.2.074.138.05-.034.062a.122.122 0 0 1-.017.023 5.397 5.397 0 0 1-.135.131l-.109-.088a.762.762 0 0 0-.231-.094s.134-.263.15-.394c.01-.054-.047-.087-.05-.089-.048-.026-.644-.41-.79-.47a6.872 6.872 0 0 0-.627-.168c-.17-.039-.2.108-.2.108-.001.007-.029.138-.053.294-.001.003-.022.1.103.144.128.045.261.083.39.128l-.058.173c-2.06-.715-4.348-.83-4.348-.83-.139-.003-.264.017-.828.213-.564.195-.966.367-1.2.378-.176.008-.685.026-.927.033-.08-.153-1.364-.616-1.897-.805-.163-.057-.21-.037-.265.004a.492.492 0 0 0-.1.15l-.037.078c.114.103.13.183.126.23a.131.131 0 0 1-.011.043c-.318-.11-.586-.2-.83-.283.713-.865 1.182-1.969 1.182-3.178a4.983 4.983 0 0 0-.715-2.578c2.033-.404 4.51-.675 7.512-.675Zm6.57 13.888c-.003.01-.05.234-.221.488-.1.15-.215.29-.345.415l-.198-.761.06-.085.704-.057Zm-1.166-.055-.015.106-.301.654c-.003-.013-.095-.435.207-.999.058.124.11.24.11.24Zm.995-.977a.822.822 0 0 1 .215.727h-.668l-.026-.071.002-.012.477-.644Zm-.215-.03-.005.03-.486.606-.07.033-.14-.202c.001-.002.398-.537.7-.466Zm-9.043-.455.352.873s-.65.19-1.014-.184l.562-.703.1.014Zm6.958-.141s-.471.57-.572 1.014l-.606-.147.816-.965.362.098Zm-5.55-.21a1.85 1.85 0 0 1-.713 1.07l-.3-.922.074-.094.939-.053Zm-1.712-.13-.016.114-.524.773c-.01-.019-.26-.532.115-1.262l.425.375Zm5.92-.219s-.005.082.096.12l.458.17-.744.815-.785-.212.975-.893Zm-9.466-4.49c-.01.002-.586.11-.856.152a.244.244 0 0 0-.175.13c-.038.084-.07.17-.094.258.606.311.96.64.96.64.428.398.577.75.616.863a.03.03 0 0 0 .006.013.028.028 0 0 0 .011.008.029.029 0 0 0 .014.002 2.67 2.67 0 0 1 .33-.146c-.001 0-.074.556.205.635l.278.078s.08.022.129 0c.01-.005.335-.177.433-.36a.59.59 0 0 0-.018-.584 8.99 8.99 0 0 1 1.742-.014.854.854 0 0 0-.095-.166c-.044-.018-.35-.125-1.33-.337.008 0 .71-.006 1.533.275a.665.665 0 0 1 .321.276c.004.007.196.355.456.419.186.045.455.084.463.085 0 0 1.312 1.002 1.701 2.351l.492.427-1.264-.41c.004-.023.165-.97-.475-1.645-.648-.682-1.538-.81-2.08-.799-.532.012-1.24.54-1.502.902-.322-.038-.906-.077-1.07-.088a.088.088 0 0 0-.04.008.087.087 0 0 0-.034.025c-.217.247-.36.277-.365.278a1.038 1.038 0 0 1-.112-.12c-1.058.387-1.448-.416-1.45-.422l.022-.359c0-.06.066-.063.066-.063l.074-.003.677.453s.05.034.033-.02a.569.569 0 0 1-.03-.127.39.39 0 0 1 .254-.41.377.377 0 0 1 .31.034s.054.028.032-.023a2.406 2.406 0 0 0-.597-.812 5.601 5.601 0 0 0-.653-.465c-.006-.004-.075-.049-.093.052l-.122 1.081a.1.1 0 0 1-.09.09l-.246.009.073-.784-.045-.025c-.092-.06-.087-.178-.086-.184.005-.116.046-.74.046-.74a2.46 2.46 0 0 1 .383-.784l1.262.346Zm4.794 3.554c.011.006.48.285.5.914l-.922-.036-.055-.087.477-.791Zm-.325-.1-.524.799-.104.05-.48-.326c.009-.01.5-.588 1.108-.523Zm5.78-.645a343.094 343.094 0 0 0-3.073-.188.318.318 0 0 0-.16.03l-.525.284s-.053.026-.021.1c.077.172.192.564.282.93a5.7 5.7 0 0 0-.919-1.331l1.012-.298a.852.852 0 0 1 .198-.019l3.206.492Zm-10.346-.49a.311.311 0 0 0-.215.329.327.327 0 0 0 .052.153.407.407 0 0 0 .37.135c.006-.002.218-.097.278-.19.048-.075.051-.171 0-.238a.703.703 0 0 0-.18-.139.352.352 0 0 0-.305-.05Zm12.056.25s.041.05.003.12l-.08.15c.078-.01.157-.013.236-.01 0 0 .089 0 .234.01.17-.286-.028-.31-.028-.31a4.624 4.624 0 0 0-.418-.013l.053.053Zm-12.007-.199a.137.137 0 0 1 .088.026.302.302 0 0 0-.083.011.15.15 0 0 0-.083.076c-.044.08-.058.209-.002.275a.118.118 0 0 0 .099.039l.052-.001-.05.016-.027.01c-.066.016-.108.003-.154-.083-.054-.102-.001-.266.08-.334a.14.14 0 0 1 .08-.035Zm1.44-.998a.256.256 0 0 1 .144.121.406.406 0 0 0-.155-.03c-.064.005-.128.05-.19.135-.121.167-.213.468-.147.666.028.083.08.138.156.16l.093.028-.096.01a.597.597 0 0 1-.054.003c-.126 0-.196-.06-.233-.297-.044-.283.138-.649.317-.763a.204.204 0 0 1 .166-.033Zm12.642-.085a.718.718 0 0 0-.047.25s0 .08.057.103l.18.047c.03.009.07.02.114.037 0 0 .255.084.446.235.008.006.18.135.273.03.104-.119.323-.37.406-.46.075-.08-.032-.108-.035-.11 0 0-.378-.105-.624-.132a11.247 11.247 0 0 0-.77 0Zm-4.498-.388s.614.09 1.095 1.013c.046.088-.028.027-.028.027-.129-.098-.45-.287-1.135-.4l-.138-.389c-.054-.103.032-.153.032-.153l.174-.098Zm1.295-.577s.108.042.196.025a.221.221 0 0 1 .098.01l.969.332a.21.21 0 0 1 .095.086c.036.063.176.14.223.158l.179.067.249.094-.065.118a.196.196 0 0 1-.03.042 3.837 3.837 0 0 1-.162.155 12.42 12.42 0 0 1-.533.426.086.086 0 0 1-.04.014l-.255.022a.042.042 0 0 0-.015.004 24.65 24.65 0 0 0-.764-.691l.035-.124s.043-.149-.133-.284a10.02 10.02 0 0 1-.235-.185l.132-.131a.154.154 0 0 0 .027-.045l.03-.093ZM7.954 8.181c-.008.01-.37.457-.518.999.1.032.197.066.29.1l-.103 1.415c-.008.113-.108.112-.108.112l-.228.006.058-.663c-.005-.001-.14-.049-.139-.137.002-.092.031-.873.031-.873s.193-.624.554-1.014l.163.056Zm8.126.917c.105-.004.723.02 1.373.103.37.047.575.077.688.104 0 0 .132.019.165.104.004.016.178.651.33 1.114a9.677 9.677 0 0 0-.593-.038.18.18 0 0 0-.14.06l-.112.163c-.27.002-.458.007-.683.018-.352.018-.836.056-1.162.08-.333.026-.55-.194-.556-.2-.205-.187-.374-.31-.538-.466-.11-.103-.066-.171-.066-.171.032-.067.182-.192.46-.38.274-.186.631-.412.643-.42a.378.378 0 0 1 .191-.07Zm-2.103-.723s.859.143 1.517.509c.094.052.001.089-.03.112a27.22 27.22 0 0 0-1.23.69.15.15 0 0 1-.098.013l-.23-.075a.132.132 0 0 0-.068 0c-.026.012-.07.032-.146.07-.156.079-.375.046-.494 0a17.89 17.89 0 0 0-1.138-.498c-.06-.024-.001-.04-.001-.04l.224-.083a.048.048 0 0 0 .032-.044l.003-.031a.053.053 0 0 1 .03-.04c.463-.163 1.006-.367 1.629-.583ZM9.34 8.223s1.28.407 1.597.663a5.542 5.542 0 0 0-.546.04c-.262.025-.44-.04-.447-.043-.23-.092-.487-.178-.666-.24.005-.185.06-.41.062-.42ZM3.225 1.649a3.604 3.604 0 1 1 2.758 6.66 3.604 3.604 0 0 1-2.758-6.66Z"/>
</svg>
