<svg xmlns="http://www.w3.org/2000/svg" width="80" height="24" viewBox="0 0 80 24" fill="none">
  <path d="M79.443 19.4259L73.9643 12.0442L78.9701 5.34302H77.0901L73.0185 10.8101L68.9469 5.34302H67.0784L72.0727 12.0557L66.6055 19.4374H68.4855L73.0185 13.3244L77.563 19.4374H79.443" fill="white" fill-opacity="1"/>
  <path d="M42.1188 19.4259L36.6516 12.0442L41.6459 5.34302H39.7774L35.7058 10.8101L31.6342 5.34302H29.7542L34.76 12.0557L29.2812 19.4374H31.1613L35.7058 13.3244L40.2387 19.4374H42.1188" fill="white" fill-opacity="1"/>
  <path d="M48.6841 17.9495H44.4972V12.8285H48.6841C50.2759 12.8285 52.1675 13.2552 52.1675 15.2737C52.1675 17.6035 49.976 17.9495 48.6841 17.9495ZM44.4972 6.80782H48.6841C49.8145 6.80782 51.7176 7.08463 51.7176 9.04539C51.7176 10.5217 50.6104 11.4098 48.6841 11.4098H44.4972V6.80782ZM52.525 12.5747C52.2251 12.321 51.9137 12.1249 51.5908 11.9865C52.6173 11.4329 53.2978 10.3833 53.2978 9.17226C53.2978 8.27262 52.9633 5.34302 48.6726 5.34302H42.894V11.4214H40.9678C40.714 11.7443 40.1488 12.5171 39.9297 12.8285H42.894V19.4259H48.6726C51.8099 19.4259 53.7592 17.8457 53.7592 15.3083C53.7707 14.201 53.344 13.2552 52.525 12.5747Z" fill="white" fill-opacity="1"/>
  <path d="M61.2817 18.2501C58.2252 18.2501 56.0914 15.8395 56.0914 12.3794C56.0914 8.9192 58.2252 6.50862 61.2817 6.50862C64.3268 6.50862 66.4491 8.9192 66.4491 12.3794C66.4491 15.828 64.3268 18.2501 61.2817 18.2501ZM61.2817 5.02075C57.2678 5.02075 54.4766 8.04262 54.4766 12.3794C54.4766 16.7161 57.2678 19.738 61.2817 19.738C65.2726 19.738 68.0639 16.7161 68.0639 12.3794C68.0639 8.04262 65.2726 5.02075 61.2817 5.02075Z" fill="white" fill-opacity="1"/>
  <path d="M10.7861 23.9494C8.94183 23.7735 7.0736 23.1099 5.46655 22.0599C4.12068 21.1805 3.81686 20.8207 3.81686 20.0985C3.81686 18.6514 5.40792 16.1143 8.12631 13.2254C9.67207 11.5838 11.8228 9.65962 12.0547 9.71026C12.5077 9.81153 16.1243 13.3453 17.4781 15.0056C19.6209 17.6387 20.6069 19.792 20.1059 20.7514C19.7248 21.4816 17.3662 22.9074 15.6339 23.4537C14.2054 23.9068 12.3292 24.0987 10.7861 23.9494ZM2.00193 18.5954C0.885256 16.8791 0.320256 15.1869 0.0457516 12.743C-0.0448616 11.9355 -0.0128805 11.4745 0.250964 9.81686C0.57877 7.75147 1.75141 5.36362 3.16391 3.89253C3.76622 3.26625 3.81952 3.25026 4.55242 3.49811C5.44256 3.79926 6.39134 4.45485 7.86513 5.79002L8.72596 6.56821L8.2569 7.14651C6.07419 9.82752 3.77422 13.6278 2.90806 15.9784C2.43634 17.2549 2.24712 18.5394 2.44967 19.0725C2.58559 19.4322 2.46033 19.299 2.00193 18.5954ZM21.617 18.8859C21.7263 18.3476 21.5877 17.3562 21.2599 16.3568C20.5536 14.1928 18.1844 10.1633 16.0097 7.42634L15.3247 6.56554L16.0656 5.8833C17.0331 4.99318 17.7047 4.46018 18.4296 4.00979C19.0026 3.65268 19.8181 3.33821 20.1699 3.33821C20.3857 3.33821 21.148 4.12972 21.7636 4.99585C22.7177 6.33368 23.4186 7.95934 23.7731 9.64896C24.0023 10.7416 24.0209 13.0788 23.8104 14.1662C23.6372 15.0589 23.2694 16.2182 22.9122 17.0071C22.6431 17.596 21.9768 18.7393 21.6836 19.1124C21.5344 19.299 21.5344 19.299 21.617 18.8859ZM10.9833 2.9278C9.97855 2.41611 8.43013 1.86979 7.57464 1.72055C7.27348 1.66991 6.76445 1.64059 6.43664 1.65659C5.73039 1.69123 5.76238 1.65658 6.89504 1.12092C7.83582 0.67586 8.62202 0.414689 9.68806 0.190827C10.8874 -0.062349 13.1394 -0.065014 14.32 0.185497C15.5939 0.454664 17.0944 1.01432 17.9392 1.53399L18.1897 1.68857L17.614 1.65925C16.4681 1.60062 14.7997 2.06433 13.0061 2.93846C12.4651 3.20229 11.996 3.41283 11.9614 3.40483C11.9294 3.3995 11.487 3.18364 10.9833 2.9278Z" fill="white" fill-opacity="1"/>
</svg>